<mxfile host="Electron" modified="2025-05-14T09:33:04.833Z" agent="Mozilla/5.0 (Macintosh; Intel Mac OS X 10_15_7) AppleWebKit/537.36 (KHTML, like Gecko) draw.io/22.1.11 Chrome/114.0.5735.289 Electron/25.9.8 Safari/537.36" etag="djqGOzsFojsb248qN7-X" version="22.1.11" type="device">
  <diagram name="Page-1" id="UGEIsctpr7C0rzbPutKI">
    <mxGraphModel dx="1224" dy="668" grid="1" gridSize="10" guides="1" tooltips="1" connect="1" arrows="1" fold="1" page="1" pageScale="1" pageWidth="827" pageHeight="1169" math="0" shadow="0">
      <root>
        <mxCell id="0" />
        <mxCell id="1" parent="0" />
        <mxCell id="dIWVmWVuEwW2tCEkWvF--1" value="Trainable Parameters" style="text;html=1;align=center;verticalAlign=middle;resizable=0;points=[];autosize=1;strokeColor=none;fillColor=none;" parent="1" vertex="1">
          <mxGeometry x="80" y="198" width="140" height="30" as="geometry" />
        </mxCell>
        <mxCell id="dIWVmWVuEwW2tCEkWvF--2" value="Number of units in the output feature map" style="text;html=1;align=center;verticalAlign=middle;resizable=0;points=[];autosize=1;strokeColor=none;fillColor=none;" parent="1" vertex="1">
          <mxGeometry x="160" y="338" width="240" height="30" as="geometry" />
        </mxCell>
        <mxCell id="dIWVmWVuEwW2tCEkWvF--3" value="Filter" style="text;html=1;align=center;verticalAlign=middle;resizable=0;points=[];autosize=1;strokeColor=none;fillColor=none;" parent="1" vertex="1">
          <mxGeometry x="395" y="488" width="50" height="30" as="geometry" />
        </mxCell>
        <mxCell id="dIWVmWVuEwW2tCEkWvF--4" value="Convolutions" style="text;html=1;align=center;verticalAlign=middle;resizable=0;points=[];autosize=1;strokeColor=none;fillColor=none;" parent="1" vertex="1">
          <mxGeometry x="475" y="228" width="90" height="30" as="geometry" />
        </mxCell>
        <mxCell id="dIWVmWVuEwW2tCEkWvF--5" value="Pooling" style="text;html=1;align=center;verticalAlign=middle;resizable=0;points=[];autosize=1;strokeColor=none;fillColor=none;" parent="1" vertex="1">
          <mxGeometry x="470" y="338" width="60" height="30" as="geometry" />
        </mxCell>
        <mxCell id="dIWVmWVuEwW2tCEkWvF--7" value="Padding" style="text;html=1;align=center;verticalAlign=middle;resizable=0;points=[];autosize=1;strokeColor=none;fillColor=none;" parent="1" vertex="1">
          <mxGeometry x="615" y="358" width="70" height="30" as="geometry" />
        </mxCell>
        <mxCell id="dIWVmWVuEwW2tCEkWvF--8" value="Number of filter" style="text;html=1;align=center;verticalAlign=middle;resizable=0;points=[];autosize=1;strokeColor=none;fillColor=none;" parent="1" vertex="1">
          <mxGeometry x="545" y="488" width="110" height="30" as="geometry" />
        </mxCell>
        <mxCell id="dIWVmWVuEwW2tCEkWvF--9" value="Size of filter" style="text;html=1;align=center;verticalAlign=middle;resizable=0;points=[];autosize=1;strokeColor=none;fillColor=none;" parent="1" vertex="1">
          <mxGeometry x="495" y="578" width="90" height="30" as="geometry" />
        </mxCell>
        <mxCell id="dIWVmWVuEwW2tCEkWvF--10" value="Verschiedene Models -&amp;gt; RF, RNN, CNN&lt;br&gt;Verschiedener Input: Spektrale Bänder + spektrale Indizes&lt;br&gt;Zeitreihe: Lücken in der Zeitreihe gefüllt und von 5day auf 2day temporal Resolution&amp;nbsp;" style="text;html=1;align=center;verticalAlign=middle;resizable=0;points=[];autosize=1;strokeColor=none;fillColor=none;" parent="1" vertex="1">
          <mxGeometry x="90" y="13" width="470" height="60" as="geometry" />
        </mxCell>
        <mxCell id="dIWVmWVuEwW2tCEkWvF--11" value="CNN mit temporal, spectral and temporal-spectral guidance (TempCNN) getestet, &lt;br&gt;jeweils mit nur NDVI, nur spektralen Bändern und Kombination aus Bändern und Indizes" style="text;html=1;align=center;verticalAlign=middle;resizable=0;points=[];autosize=1;strokeColor=none;fillColor=none;" parent="1" vertex="1">
          <mxGeometry x="35" y="120" width="490" height="40" as="geometry" />
        </mxCell>
      </root>
    </mxGraphModel>
  </diagram>
</mxfile>
